PathFileType	4	(X/Y/Z)	Kaydara																																																																																																																									
DataRate	CameraRate	NumFrames	NumMarkers	Units	OrigDataRate	OrigDataStartFrame	OrigNumFrames																																																																																																																					
30	30	4	41	mm	30	58	152																																																																																																																					
Frame#	Time	EMLA_LFHD			EMLA_RFHD			EMLA_LBHD			EMLA_RBHD			EMLA_LFTShould			EMLA_RFTShould			EMLA_LRRShould			EMLA_RRRShould			EMLA_T10			EMLA_STRN			EMLA_TRUN			EMLA_LSHO			EMLA_LUPA			EMLA_LELB			EMLA_LFRM			EMLA_LWRA			EMLA_LWRB			EMLA_LFIN			EMLA_RSHO			EMLA_RUPA			EMLA_RELB			EMLA_RFRM			EMLA_RWRA			EMLA_RWRB			EMLA_RFIN			EMLA_LFWT			EMLA_RFWT			EMLA_LBWT			EMLA_RBWT			EMLA_LTHI			EMLA_LKNE			EMLA_LSHN			EMLA_LANK			EMLA_LHEE			EMLA_LTOE			EMLA_RTHI			EMLA_RKNE			EMLA_RSHN			EMLA_RANK			EMLA_RHEE			EMLA_RTOE		
		X1	Y1	Z1	X2	Y2	Z2	X3	Y3	Z3	X4	Y4	Z4	X5	Y5	Z5	X6	Y6	Z6	X7	Y7	Z7	X8	Y8	Z8	X9	Y9	Z9	X10	Y10	Z10	X11	Y11	Z11	X12	Y12	Z12	X13	Y13	Z13	X14	Y14	Z14	X15	Y15	Z15	X16	Y16	Z16	X17	Y17	Z17	X18	Y18	Z18	X19	Y19	Z19	X20	Y20	Z20	X21	Y21	Z21	X22	Y22	Z22	X23	Y23	Z23	X24	Y24	Z24	X25	Y25	Z25	X26	Y26	Z26	X27	Y27	Z27	X28	Y28	Z28	X29	Y29	Z29	X30	Y30	Z30	X31	Y31	Z31	X32	Y32	Z32	X33	Y33	Z33	X34	Y34	Z34	X35	Y35	Z35	X36	Y36	Z36	X37	Y37	Z37	X38	Y38	Z38	X39	Y39	Z39	X40	Y40	Z40	X41	Y41	Z41
																																																																																																																												
58	1.91	287.16156	1636.36765	-1917.50336	114.72239	1640.65826	-1917.47238	301.9537	1609.85275	-2066.60065	106.96404	1615.12115	-2070.06012	286.82749	1398.39294	-1968.27911	136.49134	1386.08673	-1960.27908	271.09232	1452.45819	-2114.56009	112.53069	1441.50604	-2103.58353	203.14991	1278.73184	-2164.65378	212.72993	1324.89655	-1929.84711	208.41242	1221.25778	-1911.16104	407.63355	1422.68646	-2027.70981	467.23045	1242.64893	-2053.67111	489.75906	1100.64087	-2060.78766	488.81279	962.57004	-2051.11404	407.77443	824.01337	-1963.06519	460.55061	800.97519	-2024.63928	457.23755	770.39696	-1961.68839	9.13306	1416.71814	-2013.22662	-50.50708	1222.50565	-2006.77307	-70.88611	1079.58603	-2019.83917	-72.89112	976.57059	-2018.76434	5.34322	823.01811	-1913.92868	-47.41734	799.48746	-1976.79718	-53.13623	771.23116	-1918.5257	306.14492	985.69046	-1949.31244	70.71138	975.2346	-1963.91708	284.50083	1013.1488	-2147.2612	109.19054	1013.82187	-2142.09961	333.40469	725.58838	-2140.0943	332.37171	520.52326	-2100.54047	301.76947	336.16982	-2098.65555	302.30387	163.70611	-2182.64206	236.57854	85.3296	-2247.99774	268.8677	75.87723	-2050.40924	70.56384	710.98557	-2158.89969	37.4158	509.89544	-2097.88132	80.19266	285.16693	-2102.95609	39.07338	129.65944	-2191.60919	94.92469	76.66139	-2248.24173	56.84755	72.69669	-2048.23532
59	1.943	289.92332	1635.12787	-1909.21951	117.496	1639.42078	-1909.12567	304.79063	1609.43939	-2058.52722	109.7337	1614.63669	-2061.96075	289.31524	1397.71149	-1961.15265	139.55442	1385.40665	-1952.78122	273.685	1452.54074	-2107.57599	115.13823	1441.50894	-2096.11069	205.5604	1279.02824	-2158.24646	215.73025	1323.75031	-1923.12119	211.38973	1220.08095	-1904.96918	410.46551	1422.40372	-2020.81665	469.94171	1242.49977	-2048.51868	492.15366	1100.50545	-2056.80542	491.96293	962.56516	-2048.80264	412.29584	822.0359	-1962.108	465.24944	800.64697	-2024.5784	462.68814	768.93089	-1962.07382	12.05603	1416.63971	-2005.50339	-48.4077	1222.82021	-2000.01007	-69.52321	1080.0148	-2013.82507	-72.04319	977.0636	-2013.24707	5.37431	822.68433	-1908.65356	-47.52902	799.81934	-1971.77017	-53.42454	771.35666	-1913.5408	308.28672	984.16039	-1944.92798	72.90509	974.27551	-1960.22003	287.12233	1013.27789	-2142.73605	111.82091	1013.83987	-2137.96753	335.62988	724.30061	-2135.51437	333.90293	519.32339	-2095.56976	302.40206	334.60934	-2095.23697	302.71168	163.29477	-2181.548	237.02883	85.60461	-2248.23792	269.03917	76.2345	-2050.76965	71.97309	710.49393	-2155.78217	38.3733	509.43527	-2094.56665	80.84579	284.43401	-2101.20605	39.25107	129.74521	-2191.19461	94.98146	76.57467	-2248.18237	56.73936	72.85075	-2048.34763
60	1.977	292.88721	1633.75381	-1899.83688	120.5152	1637.80762	-1899.7583	308.00392	1608.74893	-2049.5105	112.86903	1613.62579	-2052.68021	292.78368	1396.85028	-1952.84042	142.95402	1384.32526	-1944.26498	276.7326	1452.12753	-2098.97552	118.28584	1441.14059	-2087.43637	208.58646	1278.89336	-2150.54581	219.22348	1322.49023	-1915.11047	214.6814	1218.77602	-1897.39609	413.87527	1421.6954	-2012.66708	472.48203	1241.45744	-2041.44684	493.53661	1099.2382	-2050.36316	494.36806	961.97594	-2044.73038	416.71104	818.69682	-1960.30228	469.66301	799.81506	-2023.63342	467.77153	766.11893	-1961.79321	15.43103	1416.20651	-1996.67175	-45.98348	1222.79541	-1992.97638	-67.83427	1080.3035	-2008.19092	-70.6926	977.22717	-2008.08228	5.58282	822.4408	-1903.36823	-47.11125	800.13229	-1967.15561	-53.20074	771.15768	-1908.89709	310.46978	982.58667	-1938.67035	75.46542	972.9464	-1955.02914	290.36545	1013.01445	-2136.56174	115.01623	1013.68706	-2132.41333	337.8833	723.4861	-2130.77286	335.36625	518.18073	-2091.33026	303.12378	333.43758	-2092.62573	303.12429	162.80045	-2180.7431	237.33086	85.74983	-2248.63541	269.41193	76.75075	-2051.39557	74.2418	710.06226	-2151.81458	39.70601	508.86906	-2091.11526	81.67776	283.66507	-2099.41452	39.60235	129.85573	-2190.73669	95.20574	76.59417	-2248.19611	56.70633	73.0181	-2048.49747
61	2.01	296.09112	1632.35199	-1889.28726	123.70884	1635.76324	-1889.2305	311.12366	1608.00491	-2038.7088	115.96009	1612.33383	-2042.72522	296.97134	1395.50949	-1943.03131	146.66463	1382.99637	-1934.49829	280.55973	1451.26236	-2089.02344	122.08471	1440.43015	-2077.75803	212.28905	1278.28369	-2141.33881	222.98405	1320.84091	-1905.64911	218.70941	1217.15225	-1888.26675	418.07396	1420.30426	-2002.92007	475.00893	1239.46899	-2032.13089	494.40456	1097.08298	-2041.11618	495.9243	960.56839	-2038.12088	419.71901	814.22775	-1956.9577	473.06343	798.27614	-2020.8078	471.64143	762.31102	-1959.98825	19.28512	1415.30975	-1987.03766	-43.07307	1222.09305	-1985.36926	-65.5742	1080.13077	-2002.68555	-68.61328	976.89659	-2003.2608	6.4115	821.34003	-1898.48114	-46.05723	800.06325	-1963.17505	-52.40715	770.34004	-1904.87488	313.61609	980.51529	-1931.25824	78.52942	971.31958	-1948.41492	294.16656	1012.31491	-2129.0593	118.65194	1013.41011	-2125.43121	339.97959	722.51022	-2125.34134	337.12013	516.84319	-2087.03979	303.8534	331.9413	-2090.21027	303.50739	162.33789	-2180.51956	237.51362	85.82281	-2249.44733	269.52271	77.21026	-2052.45529	77.38	709.15512	-2146.02173	41.23365	508.00911	-2086.02951	82.64819	282.55896	-2096.84372	40.03617	130.00261	-2190.20874	95.82673	76.81924	-2248.61298	56.89334	73.25751	-2048.81622
